# xmcd
#
# Track frame offsets:
#	150
#	12930
#	26738
#	40700
#	51822
#	66564
#	78186
#	90244
#	104114
#	121476
#	132390
#	145665
#	158271
#	172915
#	187820
#	200363
#	213443
#	224263
#	238728
#	250084
#	261881
#	275774
#
# Disc length: 3835 seconds
#
# Revision: 0
# Processed by: cddbd v1.5.2PL0 Copyright (c) Steve Scherf et al.
# Submitted via: audiograbber 1.83.01
#
DISCID=340ef916
DTITLE=Benny Goodman - Life Goes To A Party CD4
DYEAR=2005
DGENRE=Instrumental
TTITLE0=The Kingdom Of Swing
TTITLE1=Pick-A-Rib
TTITLE2=Stealin' Apples
TTITLE3=Bolero
TTITLE4=I Didn't Know What Time It Was
TTITLE5=Let's Dance
TTITLE6=Peace, Brother
TTITLE7=Honeysuckle Rose
TTITLE8=The Man I Love
TTITLE9=Henderson Stomp
TTITLE10=Frenesi
TTITLE11=Somebody Stole My Gal
TTITLE12=This Is New
TTITLE13=Perfidia
TTITLE14=Solo Flight
TTITLE15=Clarinet A La King
TTITLE16=The Darktown Strutters' Ball
TTITLE17=Why Don't You Do Right?
TTITLE18=After You've Gone
TTITLE19=Mission To Moscow
TTITLE20=Love Walked In 
TTITLE21=Clarinade
EXTD=CD 4 - 4
EXTT0=
EXTT1=
EXTT2=
EXTT3=
EXTT4=
EXTT5=
EXTT6=
EXTT7=
EXTT8=
EXTT9=
EXTT10=
EXTT11=
EXTT12=
EXTT13=
EXTT14=
EXTT15=
EXTT16=
EXTT17=
EXTT18=
EXTT19=
EXTT20=
EXTT21=
PLAYORDER=
